HIERARCHY
ROOT hip
{
  OFFSET 0 0 0
  CHANNELS 6 Xposition Yposition Zposition Zrotation Yrotation Xrotation
  JOINT abdomen
  {
    OFFSET 0 20.6881 -0.73152
    CHANNELS 3 Zrotation Xrotation Yrotation
    JOINT chest
    {
      OFFSET 0 11.7043 -0.48768
      CHANNELS 3 Zrotation Xrotation Yrotation
      JOINT neck
      {
        OFFSET 0 22.1894 -2.19456
        CHANNELS 3 Zrotation Xrotation Yrotation
        JOINT head
        {
          OFFSET -0.24384 7.07133 1.2192
          CHANNELS 3 Zrotation Xrotation Yrotation
          JOINT leftEye
          {
            OFFSET 4.14528 8.04674 8.04672
            CHANNELS 3 Zrotation Xrotation Yrotation
            End Site
            {
              OFFSET 1 0 0
            }
          }
          JOINT rightEye
          {
            OFFSET -3.6576 8.04674 8.04672
            CHANNELS 3 Zrotation Xrotation Yrotation
            End Site
            {
              OFFSET 1 0 0
            }
          }
        }
      }
      JOINT rCollar
      {
        OFFSET -2.68224 19.2634 -4.8768
        CHANNELS 3 Zrotation Xrotation Yrotation
        JOINT rShldr
        {
          OFFSET -8.77824 -1.95073 1.46304
          CHANNELS 3 Zrotation Xrotation Yrotation
          JOINT rForeArm
          {
            OFFSET -28.1742 -1.7115 0.48768
            CHANNELS 3 Zrotation Xrotation Yrotation
            JOINT rHand
            {
              OFFSET -22.5879 0.773209 7.07136
              CHANNELS 3 Zrotation Xrotation Yrotation
              JOINT rThumb1
              {
                OFFSET -1.2192 -0.487915 3.41376
                CHANNELS 3 Zrotation Xrotation Yrotation
                JOINT rThumb2
                {
                  OFFSET -3.37035 -0.52449 3.41376
                  CHANNELS 3 Zrotation Xrotation Yrotation
                  End Site
                  {
                    OFFSET -1.78271 -1.18214 1.43049
                  }
                }
              }
              JOINT rIndex1
              {
                OFFSET -7.75947 0.938293 5.60832
                CHANNELS 3 Zrotation Xrotation Yrotation
                JOINT rIndex2
                {
                  OFFSET -2.54057 -0.884171 1.56538
                  CHANNELS 3 Zrotation Xrotation Yrotation
                  End Site
                  {
                    OFFSET -1.62519 -0.234802 1.16502
                  }
                }
              }
              JOINT rMid1
              {
                OFFSET -8.24714 1.18213 3.41376
                CHANNELS 3 Zrotation Xrotation Yrotation
                JOINT rMid2
                {
                  OFFSET -3.10165 -0.590103 1.0647
                  CHANNELS 3 Zrotation Xrotation Yrotation
                  End Site
                  {
                    OFFSET -2.48547 -0.328903 0.83742
                  }
                }
              }
              JOINT rRing1
              {
                OFFSET -8.82822 0.546677 1.51678
                CHANNELS 3 Zrotation Xrotation Yrotation
                JOINT rRing2
                {
                  OFFSET -2.60934 -0.819778 -0.0198488
                  CHANNELS 3 Zrotation Xrotation Yrotation
                  End Site
                  {
                    OFFSET -2.33842 -0.294052 0.168128
                  }
                }
              }
              JOINT rPinky1
              {
                OFFSET -8.27202 -0.0477905 -0.4584
                CHANNELS 3 Zrotation Xrotation Yrotation
                JOINT rPinky2
                {
                  OFFSET -1.82734 -0.647385 -0.700984
                  CHANNELS 3 Zrotation Xrotation Yrotation
                  End Site
                  {
                    OFFSET -1.69225 -0.51767 -0.607171
                  }
                }
              }
            }
          }
        }
      }
      JOINT lCollar
      {
        OFFSET 2.68224 19.2634 -4.8768
        CHANNELS 3 Zrotation Xrotation Yrotation
        JOINT lShldr
        {
          OFFSET 8.77824 -1.95073 1.46304
          CHANNELS 3 Zrotation Xrotation Yrotation
          JOINT lForeArm
          {
            OFFSET 28.1742 -1.7115 0.48768
            CHANNELS 3 Zrotation Xrotation Yrotation
            JOINT lHand
            {
              OFFSET 22.5879 0.773209 7.07136
              CHANNELS 3 Zrotation Xrotation Yrotation
              JOINT lThumb1
              {
                OFFSET 1.2192 -0.487915 3.41376
                CHANNELS 3 Zrotation Xrotation Yrotation
                JOINT lThumb2
                {
                  OFFSET 3.37035 -0.52449 3.41376
                  CHANNELS 3 Zrotation Xrotation Yrotation
                  End Site
                  {
                    OFFSET 1.78271 -1.18214 1.43049
                  }
                }
              }
              JOINT lIndex1
              {
                OFFSET 7.75947 0.938293 5.60832
                CHANNELS 3 Zrotation Xrotation Yrotation
                JOINT lIndex2
                {
                  OFFSET 2.54057 -0.884171 1.56538
                  CHANNELS 3 Zrotation Xrotation Yrotation
                  End Site
                  {
                    OFFSET 1.62519 -0.234802 1.16502
                  }
                }
              }
              JOINT lMid1
              {
                OFFSET 8.24714 1.18213 3.41376
                CHANNELS 3 Zrotation Xrotation Yrotation
                JOINT lMid2
                {
                  OFFSET 3.10165 -0.590103 1.0647
                  CHANNELS 3 Zrotation Xrotation Yrotation
                  End Site
                  {
                    OFFSET 2.48547 -0.328903 0.83742
                  }
                }
              }
              JOINT lRing1
              {
                OFFSET 8.82822 0.546677 1.51678
                CHANNELS 3 Zrotation Xrotation Yrotation
                JOINT lRing2
                {
                  OFFSET 2.60934 -0.819778 -0.0198488
                  CHANNELS 3 Zrotation Xrotation Yrotation
                  End Site
                  {
                    OFFSET 2.33842 -0.294052 0.168128
                  }
                }
              }
              JOINT lPinky1
              {
                OFFSET 8.27202 -0.0477905 -0.4584
                CHANNELS 3 Zrotation Xrotation Yrotation
                JOINT lPinky2
                {
                  OFFSET 1.82734 -0.647385 -0.700984
                  CHANNELS 3 Zrotation Xrotation Yrotation
                  End Site
                  {
                    OFFSET 1.69225 -0.51767 -0.607171
                  }
                }
              }
            }
          }
        }
      }
    }
  }
  JOINT rButtock
  {
    OFFSET -8.77824 4.35084 1.2192
    CHANNELS 3 Zrotation Xrotation Yrotation
    JOINT rThigh
    {
      OFFSET 0 -1.70687 -2.19456
      CHANNELS 3 Zrotation Xrotation Yrotation
      JOINT rShin
      {
        OFFSET 0 -36.8199 0.73152
        CHANNELS 3 Zrotation Xrotation Yrotation
        JOINT rFoot
        {
          OFFSET 0.73152 -45.1104 -5.12064
          CHANNELS 3 Zrotation Xrotation Yrotation
          End Site
          {
            OFFSET -1.1221 -3.69964 12.103
          }
        }
      }
    }
  }
  JOINT lButtock
  {
    OFFSET 8.77824 4.35084 1.2192
    CHANNELS 3 Zrotation Xrotation Yrotation
    JOINT lThigh
    {
      OFFSET 0 -1.70687 -2.19456
      CHANNELS 3 Zrotation Xrotation Yrotation
      JOINT lShin
      {
        OFFSET 0 -36.8199 0.73152
        CHANNELS 3 Zrotation Xrotation Yrotation
        JOINT lFoot
        {
          OFFSET -0.73152 -45.1104 -5.12064
          CHANNELS 3 Zrotation Xrotation Yrotation
          End Site
          {
            OFFSET 1.1221 -3.69964 12.103
          }
        }
      }
    }
  }
}
MOTION
Frames:	4
Frame Time:	0.03333
0.0 0.0 0.0 0.0 0.0 0.0 0.0 0.0 0.0 0.0 0.0 0.0 0.0 0.0 0.0 0.0 0.0 0.0 0.0 0.0 0.0 0.0 0.0 0.0 0.0 0.0 0.0 0.0 0.0 0.0 0.0 0.0 0.0 0.0 0.0 0.0 0.0 0.0 0.0 0.0 0.0 0.0 0.0 0.0 0.0 0.0 0.0 0.0 0.0 0.0 0.0 0.0 0.0 0.0 0.0 0.0 0.0 0.0 0.0 0.0 0.0 0.0 0.0 0.0 0.0 0.0 0.0 0.0 0.0 0.0 0.0 0.0 0.0 0.0 0.0 0.0 0.0 0.0 0.0 0.0 0.0 0.0 0.0 0.0 0.0 0.0 0.0 0.0 0.0 0.0 0.0 0.0 0.0 0.0 0.0 0.0 0.0 0.0 0.0 0.0 0.0 0.0 0.0 0.0 0.0 0.0 0.0 0.0 0.0 0.0 0.0 0.0 0.0 0.0 0.0 0.0 0.0 0.0 0.0 0.0 0.0 0.0 0.0 0.0 0.0 0.0 0.0 0.0 0.0 0.0 0.0 0.0
0.2744 50.7468 0.2187 -0.318437 30.948244 -1.289366 0.307063 -0.154797 80.906224 10.050116 -5.256391 -124.626096 -16.131306 -19.555887 -29.737803 -20.973605 49.812834 -133.314371 102.586952 8.73048 -10.883167 12.03759 3.240099 30.031712 87.548269 24.060062 17.708358 167.483952 59.293173 -169.354313 3.609239 51.787543 -18.307651 164.741499 -22.401674 -145.348323 -170.765472 -5.878775 112.589107 138.851729 -13.780063 31.118241 -56.449129 -48.357907 -124.751507 -5.334429 -25.501372 30.286129 -75.537929 21.219022 -0.934925 -126.437546 7.364929 -145.292793 79.216167 33.040574 -84.389658 -51.749662 -1.004261 -127.783807 -56.621663 -19.879373 127.90478 129.463656 29.373676 34.8222 -65.428652 5.648294 -4.324784 45.98711 77.511479 -69.058073 -5.217146 60.768885 140.865769 -170.196002 36.40287 -126.10146 9.850534 53.930235 -39.125403 72.33028 73.163846 134.402344 29.203484 -26.76343 94.19992 -175.35373 -23.927661 -131.899736 -173.750514 24.538267 144.677034 157.658366 -9.899182 -37.988056 -61.655194 -9.983519 121.272655 -73.020774 -53.127784 -152.578305 -93.279801 60.03243 123.8535 -110.833013 33.659313 10.559606 -32.299389 0.030865 -89.964473 -0.840669 32.002928 0.91915 -7.714321 1.984243 -90.774815 -32.051832 74.839571 38.473799 -5.190896 31.29544 160.910411 -17.512965 27.786741 -42.050272 -3.256398 -3.359862 -73.24085 -62.923822 -20.286945 96.24157
0.8566 68.4797 -0.561 -82.985409 -86.396621 87.773791 1.122665 0.882099 154.482198 0.88747 -4.236391 -150.331215 -14.836814 12.318348 -112.332382 37.807275 22.280873 91.04779 161.424234 5.389504 -32.111923 -46.142555 5.159178 -12.075638 -61.96279 66.881181 92.896187 -119.523457 35.724003 111.702892 11.694214 -18.951635 -118.897502 -163.041785 -11.446979 133.778319 -169.683268 -26.57205 100.427304 117.048008 57.496105 -53.107651 171.255584 -40.698089 164.764646 131.649829 -12.196721 -176.690156 -1.743124 25.970719 -25.818566 -15.341121 34.442717 49.106149 28.958774 -8.009004 -4.108561 90.529126 9.464452 -116.071129 19.497858 -28.140356 3.990582 138.603447 28.445631 -165.24652 136.707995 -56.204152 179.462816 144.97355 -27.749277 122.805974 117.16171 -65.892875 27.985405 -7.208161 -3.170273 2.52822 8.162936 0.834992 17.513198 133.921021 -19.231504 -72.179736 9.767123 60.042625 5.728129 -174.399735 13.951096 -73.157205 178.759591 1.739734 132.064883 -165.208652 3.143873 118.546675 31.429367 39.211329 -22.406538 108.693813 -33.919469 153.394249 158.988752 -20.807929 155.170118 54.478133 -3.067406 -42.574209 -47.916804 17.594133 -89.556475 46.538032 38.444632 171.303881 39.719285 -15.184657 116.254655 -14.536205 67.981647 94.267374 -29.726203 14.223918 -66.006486 60.65968 20.88909 -43.774604 -28.354327 -23.031936 74.312324 32.573963 51.064177 12.162602
2.0702000000000003 64.4975 -1.1991 -82.64338 -81.161391 93.078516 5.787794 -0.078885 89.877821 0.37156 1.588589 -84.822669 5.038609 17.775756 100.503088 -26.724173 4.889294 -97.679462 -151.439029 10.378609 39.273258 8.22663 0.96711 13.387145 162.856037 -67.012639 139.722507 54.801666 39.303899 -82.942632 159.890341 -46.34253 30.727699 -159.46079 15.679269 128.899673 -2.116 7.863092 -1.761818 -134.878921 -49.721649 151.09481 -153.810746 5.644949 120.69165 81.325637 69.368224 -152.565996 -169.300416 15.027346 128.81812 20.714612 -34.550935 39.010131 -141.15802 -21.176147 152.923261 -80.719856 -31.293574 106.728957 -0.674738 9.584315 -13.031122 -77.9882 21.545929 76.955678 5.132391 -2.194538 -1.64383 98.896835 0.819378 -136.134069 12.861544 9.968468 105.328739 -159.44789 -42.354129 -135.764482 169.04803 8.619194 -90.710703 -162.505696 -28.754006 -87.736112 -36.68525 -44.551174 -9.032889 15.587308 34.233868 -52.094815 156.377763 -43.976109 -140.85596 161.954846 -61.310373 -129.619678 28.989238 2.004156 -3.033002 -50.781324 -15.805028 -10.105835 95.345146 57.458314 -138.013768 -59.382321 3.31925 -37.71345 148.663531 79.603658 7.970344 -169.085521 37.121126 28.760681 69.919677 18.484688 15.001939 167.601443 29.926356 122.474761 -97.39751 48.671687 -51.033657 161.214738 7.653334 -48.561894 -77.862094 6.737217 -16.16878 149.89947 -20.526113 -138.142192
